REM DIRINDEX 1\3,1\2\4,1\2\5,1\2\6
REM DIRNAME cjc137,folder01,folder02,folder03,folder04,folder05
TITLE ""
FILE "059.mp3" MP3
  TRACK 01 AUDIO
    TITLE "4:cjc137_2402"
    INDEX 01 00:00:00
  TRACK 02 AUDIO
    TITLE "0:"
    INDEX 01 00:01:15
  TRACK 03 AUDIO
    TITLE "6:cjc137_2403"
    INDEX 01 00:01:22
  TRACK 04 AUDIO
    TITLE "0:"
    INDEX 01 00:02:38
  TRACK 05 AUDIO
    TITLE "5:cjc137_2404"
    INDEX 01 00:02:45
  TRACK 06 AUDIO
    TITLE "0:"
    INDEX 01 00:03:63
  TRACK 07 AUDIO
    TITLE "4:cjc137_2405"
    INDEX 01 00:04:70
  TRACK 08 AUDIO
    TITLE "0:"
    INDEX 01 00:06:02
  TRACK 09 AUDIO
    TITLE "6:cjc137_2406"
    INDEX 01 00:06:08
  TRACK 10 AUDIO
    TITLE "0:"
    INDEX 01 00:07:11
  TRACK 11 AUDIO
    TITLE "5:cjc137_2407"
    INDEX 01 00:07:17
  TRACK 12 AUDIO
    TITLE "0:"
    INDEX 01 00:08:24
  TRACK 13 AUDIO
    TITLE "4:cjc137_2408"
    INDEX 01 00:09:32
  TRACK 14 AUDIO
    TITLE "0:"
    INDEX 01 00:10:47
  TRACK 15 AUDIO
    TITLE "6:cjc137_2409"
    INDEX 01 00:10:55
  TRACK 16 AUDIO
    TITLE "0:"
    INDEX 01 00:11:58
  TRACK 17 AUDIO
    TITLE "5:cjc137_2410"
    INDEX 01 00:11:66
  TRACK 18 AUDIO
    TITLE "0:"
    INDEX 01 00:13:06
  TRACK 19 AUDIO
    TITLE "4:cjc137_2411"
    INDEX 01 00:14:13
  TRACK 20 AUDIO
    TITLE "0:"
    INDEX 01 00:15:30
  TRACK 21 AUDIO
    TITLE "6:cjc137_2412"
    INDEX 01 00:15:34
  TRACK 22 AUDIO
    TITLE "0:"
    INDEX 01 00:16:48
  TRACK 23 AUDIO
    TITLE "5:cjc137_2413"
    INDEX 01 00:16:53
  TRACK 24 AUDIO
    TITLE "0:"
    INDEX 01 00:17:70
  TRACK 25 AUDIO
    TITLE "4:cjc137_2414"
    INDEX 01 00:18:74
  TRACK 26 AUDIO
    TITLE "0:"
    INDEX 01 00:20:14
  TRACK 27 AUDIO
    TITLE "6:cjc137_2415"
    INDEX 01 00:20:22
  TRACK 28 AUDIO
    TITLE "0:"
    INDEX 01 00:21:39
  TRACK 29 AUDIO
    TITLE "5:cjc137_2416"
    INDEX 01 00:21:45
  TRACK 30 AUDIO
    TITLE "0:"
    INDEX 01 00:22:60
  TRACK 31 AUDIO
    TITLE "4:cjc137_2417"
    INDEX 01 00:23:69
  TRACK 32 AUDIO
    TITLE "0:"
    INDEX 01 00:24:65
  TRACK 33 AUDIO
    TITLE "6:cjc137_2418"
    INDEX 01 00:25:03
  TRACK 34 AUDIO
    TITLE "0:"
    INDEX 01 00:26:03
  TRACK 35 AUDIO
    TITLE "5:cjc137_2419"
    INDEX 01 00:26:09
  TRACK 36 AUDIO
    TITLE "0:"
    INDEX 01 00:27:08
  TRACK 37 AUDIO
    TITLE "4:cjc137_2420"
    INDEX 01 00:28:19
  TRACK 38 AUDIO
    TITLE "0:"
    INDEX 01 00:29:27
  TRACK 39 AUDIO
    TITLE "6:cjc137_2421"
    INDEX 01 00:29:36
  TRACK 40 AUDIO
    TITLE "0:"
    INDEX 01 00:30:36
  TRACK 41 AUDIO
    TITLE "5:cjc137_2422"
    INDEX 01 00:30:42
  TRACK 42 AUDIO
    TITLE "0:"
    INDEX 01 00:31:53
  TRACK 43 AUDIO
    TITLE "4:cjc137_2423"
    INDEX 01 00:32:60
  TRACK 44 AUDIO
    TITLE "0:"
    INDEX 01 00:34:06
  TRACK 45 AUDIO
    TITLE "6:cjc137_2424"
    INDEX 01 00:34:12
  TRACK 46 AUDIO
    TITLE "0:"
    INDEX 01 00:35:31
  TRACK 47 AUDIO
    TITLE "5:cjc137_2425"
    INDEX 01 00:35:37
  TRACK 48 AUDIO
    TITLE "0:"
    INDEX 01 00:36:60
  TRACK 49 AUDIO
    TITLE "4:cjc137_2426"
    INDEX 01 00:37:65
  TRACK 50 AUDIO
    TITLE "0:"
    INDEX 01 00:39:05
  TRACK 51 AUDIO
    TITLE "6:cjc137_2427"
    INDEX 01 00:39:11
  TRACK 52 AUDIO
    TITLE "0:"
    INDEX 01 00:40:01
  TRACK 53 AUDIO
    TITLE "5:cjc137_2428"
    INDEX 01 00:40:07
  TRACK 54 AUDIO
    TITLE "0:"
    INDEX 01 00:41:22
  TRACK 55 AUDIO
    TITLE "4:cjc137_2429"
    INDEX 01 00:42:27
  TRACK 56 AUDIO
    TITLE "0:"
    INDEX 01 00:43:39
  TRACK 57 AUDIO
    TITLE "6:cjc137_2430"
    INDEX 01 00:43:44
  TRACK 58 AUDIO
    TITLE "0:"
    INDEX 01 00:44:65
  TRACK 59 AUDIO
    TITLE "5:cjc137_2431"
    INDEX 01 00:44:71
  TRACK 60 AUDIO
    TITLE "0:"
    INDEX 01 00:46:07
  TRACK 61 AUDIO
    TITLE "4:cjc137_2432"
    INDEX 01 00:47:15
  TRACK 62 AUDIO
    TITLE "0:"
    INDEX 01 00:48:34
  TRACK 63 AUDIO
    TITLE "6:cjc137_2433"
    INDEX 01 00:48:40
  TRACK 64 AUDIO
    TITLE "0:"
    INDEX 01 00:49:51
  TRACK 65 AUDIO
    TITLE "5:cjc137_2434"
    INDEX 01 00:49:59
  TRACK 66 AUDIO
    TITLE "0:"
    INDEX 01 00:51:03
  TRACK 67 AUDIO
    TITLE "4:cjc137_2435"
    INDEX 01 00:52:10
  TRACK 68 AUDIO
    TITLE "0:"
    INDEX 01 00:53:37
  TRACK 69 AUDIO
    TITLE "6:cjc137_2436"
    INDEX 01 00:53:45
  TRACK 70 AUDIO
    TITLE "0:"
    INDEX 01 00:54:42
  TRACK 71 AUDIO
    TITLE "5:cjc137_2437"
    INDEX 01 00:54:50
  TRACK 72 AUDIO
    TITLE "0:"
    INDEX 01 00:56:00
  TRACK 73 AUDIO
    TITLE "4:cjc137_2438"
    INDEX 01 00:57:09
  TRACK 74 AUDIO
    TITLE "0:"
    INDEX 01 00:58:11
  TRACK 75 AUDIO
    TITLE "6:cjc137_2439"
    INDEX 01 00:58:34
  TRACK 76 AUDIO
    TITLE "0:"
    INDEX 01 00:59:26
  TRACK 77 AUDIO
    TITLE "5:cjc137_2440"
    INDEX 01 00:59:34
  TRACK 78 AUDIO
    TITLE "0:"
    INDEX 01 01:00:39
  TRACK 79 AUDIO
    TITLE "4:cjc137_2441"
    INDEX 01 01:01:58
  TRACK 80 AUDIO
    TITLE "0:"
    INDEX 01 01:02:71
  TRACK 81 AUDIO
    TITLE "6:cjc137_2442"
    INDEX 01 01:03:04
  TRACK 82 AUDIO
    TITLE "0:"
    INDEX 01 01:04:19
  TRACK 83 AUDIO
    TITLE "5:cjc137_2443"
    INDEX 01 01:04:27
  TRACK 84 AUDIO
    TITLE "0:"
    INDEX 01 01:05:38
